<svg width="602" height="1304" viewBox="0 0 602 1304" fill="none" xmlns="http://www.w3.org/2000/svg">
<rect x="22" y="20" width="557" height="1260" rx="45" stroke="black" stroke-width="6"/>
<rect x="37" y="35" width="528" height="1233" rx="34" stroke="black" stroke-width="4"/>
<rect x="221" y="101" width="161" height="161" rx="30" stroke="black" stroke-width="4"/>
<rect x="67" y="365" width="470" height="76" rx="15" stroke="black" stroke-width="2"/>
<rect x="67" y="464" width="470" height="76" rx="15" stroke="black" stroke-width="2"/>
<rect x="67" y="664" width="470" height="76" rx="15" stroke="black" stroke-width="2"/>
<rect x="67" y="1119" width="470" height="76" rx="15" fill="black" stroke="black" stroke-width="2"/>
<rect x="66" y="842" width="470" height="76" rx="15" stroke="black" stroke-width="2"/>
<path fill-rule="evenodd" clip-rule="evenodd" d="M303 942H521C528.732 942 535 948.268 535 956V1002C535 1009.73 528.732 1016 521 1016H303V942ZM301 940H303H521C529.837 940 537 947.163 537 956V1002C537 1010.84 529.837 1018 521 1018H303H301H81C72.1634 1018 65 1010.84 65 1002V956C65 947.163 72.1634 940 81 940H301ZM301 1016H81C73.268 1016 67 1009.73 67 1002V956C67 948.268 73.268 942 81 942H301V1016Z" fill="black"/>
</svg>
