<?xml version="1.0" encoding="utf-8"?>
<!-- Generator: Adobe Illustrator 27.3.1, SVG Export Plug-In . SVG Version: 6.00 Build 0)  -->
<svg version="1.1" xmlns="http://www.w3.org/2000/svg" xmlns:xlink="http://www.w3.org/1999/xlink" x="0px" y="0px"
	 viewBox="0 0 1000 1000" style="enable-background:new 0 0 1000 1000;" xml:space="preserve">
<style type="text/css">
	.st0{display:none;}
	.st1{display:inline;fill:#FFFFFF;}
	.st2{fill:#FFFFFF;}
</style>
<g id="Layer_2" class="st0">
	<rect class="st1" width="1000" height="1000"/>
</g>
<g id="Layer_1">
	<g>
		<path d="M359.26,680.1l-2.65,4.77c-3.35,6.01-7.76,12.08-13.1,18.07h523.07c19.92,0,36.08-16.16,36.08-36.08V445.6H532.94
			L359.26,680.1z M737.2,581.38c0-11.48,9.3-20.78,20.78-20.78h68.11c11.48,0,20.78,9.3,20.78,20.78v53.11
			c0,11.48-9.3,20.78-20.78,20.78h-68.11c-11.48,0-20.78-9.3-20.78-20.78V581.38z"/>
		<path d="M866.58,297.07H642.96l-41.84,56.49h301.54v-20.4C902.66,313.23,886.5,297.07,866.58,297.07z"/>
		<polygon class="st2" points="532.94,445.6 902.66,445.6 902.66,353.56 601.12,353.56 		"/>
		<path class="st2" d="M757.98,655.27h68.11c11.48,0,20.78-9.3,20.78-20.78v-53.11c0-11.48-9.3-20.78-20.78-20.78h-68.11
			c-11.48,0-20.78,9.3-20.78,20.78v53.11C737.2,645.96,746.5,655.27,757.98,655.27z"/>
		<path d="M504.57,445.6l68.18-92.05l41.14-55.54h-162.8L268.93,555.84l-8.8-257.83H103.94h-6.6l0.16,2.17l27.07,374.66
			c-1.11,4.09,0.1,9.75,3.56,16.96c3.52,7.34,7.62,11.01,12.32,11.01h163.68c8.21-2.93,14.96-7.19,20.24-12.76
			c5.27-5.58,9.37-11.01,12.32-16.29l-1.77,0.88L504.57,445.6z"/>
	</g>
</g>
</svg>
